<?xml version="1.0" standalone="no"?>
<!DOCTYPE svg PUBLIC "-//W3C//DTD SVG 20010904//EN"
 "http://www.w3.org/TR/2001/REC-SVG-20010904/DTD/svg10.dtd">
<svg version="1.0" xmlns="http://www.w3.org/2000/svg"
 width="119.000000pt" height="119.000000pt" viewBox="0 0 119.000000 119.000000"
 preserveAspectRatio="xMidYMid meet">
<metadata>
Created by potrace 1.14, written by Peter Selinger 2001-2017
</metadata>
<g transform="translate(0.000000,119.000000) scale(0.100000,-0.100000)"
fill="#000000" stroke="none">
<path d="M0 757 c0 -298 3 -436 11 -444 8 -8 8 -13 0 -17 -7 -5 -11 -58 -11
-152 l0 -144 165 0 165 0 0 35 c0 24 5 35 15 35 10 0 15 -11 15 -35 l0 -35 75
0 75 0 0 35 c0 24 5 35 15 35 10 0 15 -11 15 -35 l0 -35 325 0 325 0 0 595 0
595 -595 0 -595 0 0 -433z m380 401 c0 -6 -10 -22 -22 -36 -19 -19 -23 -35
-23 -86 0 -53 4 -68 28 -99 23 -31 25 -37 11 -37 -29 0 -54 31 -70 87 -17 59
-9 103 29 156 21 28 47 36 47 15z m518 -25 c35 -51 46 -99 32 -149 -13 -45
-58 -104 -79 -104 -18 0 -13 15 19 55 23 29 30 48 30 82 0 46 -17 90 -44 112
-22 18 -20 31 3 31 11 0 28 -12 39 -27z m-108 -243 c0 -6 -65 -10 -175 -10
-110 0 -175 4 -175 10 0 6 65 10 175 10 110 0 175 -4 175 -10z m-410 -91 c0
-6 -9 -22 -20 -36 -46 -58 -44 -123 6 -190 28 -37 15 -56 -18 -27 -42 39 -62
109 -47 166 14 55 79 126 79 87z m518 -33 c35 -51 44 -94 31 -143 -14 -53 -63
-113 -79 -97 -8 9 -8 15 2 25 63 64 64 168 4 218 -21 18 -20 31 2 31 9 0 27
-15 40 -34z m-324 -51 c50 -46 19 -135 -47 -135 -70 0 -103 85 -52 135 31 32
65 32 99 0z m181 0 c72 -71 -28 -183 -102 -113 -48 45 -13 138 52 138 14 0 37
-11 50 -25z m-218 -406 c46 -135 49 -149 30 -149 -13 0 -109 265 -99 275 15
15 29 -11 69 -126z m223 114 c0 -34 -85 -263 -97 -263 -7 0 -13 5 -13 11 0 10
52 169 81 247 10 26 29 29 29 5z m-565 -118 c0 -12 -40 -19 -61 -11 -9 3 -12
11 -9 16 8 14 70 9 70 -5z m180 0 c0 -12 -40 -19 -61 -11 -9 3 -12 11 -9 16 8
14 70 9 70 -5z"/>
<path d="M495 690 c-26 -29 -10 -74 28 -78 37 -4 55 39 32 74 -19 29 -36 30
-60 4z"/>
<path d="M677 692 c-23 -25 -21 -48 3 -72 39 -39 87 17 56 65 -20 30 -37 32
-59 7z"/>
</g>
</svg>
